<svg width="78" height="78" viewBox="0 0 78 78" fill="none" xmlns="http://www.w3.org/2000/svg">
<g clip-path="url(#clip0)">
<path d="M41.2499 41.2497L51.7282 41.2497C52.3224 41.2459 52.891 41.0073 53.3098 40.5858C53.7287 40.1643 53.9638 39.5942 53.9637 38.9999C53.9637 38.4057 53.7286 37.8356 53.3098 37.4142C52.8909 36.9927 52.3223 36.754 51.7281 36.7503L41.2499 36.7502L41.2498 26.272C41.2445 25.6789 41.0051 25.1119 40.5838 24.6944C40.1625 24.2769 39.5933 24.0427 39.0002 24.0427C38.407 24.0427 37.8379 24.2769 37.4166 24.6944C36.9953 25.1119 36.7559 25.6789 36.7505 26.272L36.7504 36.7502L26.2723 36.7503C25.6791 36.7557 25.1121 36.995 24.6946 37.4164C24.2771 37.8377 24.0429 38.4068 24.0429 39C24.0429 39.5931 24.2771 40.1622 24.6946 40.5835C25.1121 41.0049 25.6791 41.2442 26.2723 41.2496L36.7504 41.2497L36.7504 51.728C36.7542 52.3222 36.9929 52.8908 37.4144 53.3096C37.8359 53.7285 38.406 53.9635 39.0002 53.9635C39.5944 53.9635 40.1645 53.7284 40.586 53.3095C41.0075 52.8907 41.2461 52.3221 41.2498 51.7279L41.2499 41.2497Z" fill="white"/>
<path d="M61.4991 39.0002C61.4991 33.0331 59.1287 27.3103 54.9093 23.0909C50.6899 18.8715 44.9671 16.5011 39 16.5011C33.0329 16.5011 27.3101 18.8715 23.0907 23.0909C18.8713 27.3103 16.5009 33.0331 16.5009 39.0002C16.5009 44.9674 18.8713 50.6901 23.0907 54.9095C27.3101 59.1289 33.0329 61.4994 39 61.4994C44.9671 61.4994 50.6899 59.1289 54.9093 54.9095C59.1287 50.6901 61.4991 44.9674 61.4991 39.0002V39.0002ZM41.2497 51.7282C41.2524 52.0253 41.1962 52.32 41.0843 52.5953C40.9725 52.8706 40.8072 53.1211 40.598 53.3321C40.3888 53.5432 40.1399 53.7107 39.8657 53.8251C39.5914 53.9394 39.2972 53.9983 39 53.9983C38.7028 53.9983 38.4086 53.9394 38.1344 53.8251C37.8601 53.7107 37.6112 53.5432 37.402 53.3321C37.1928 53.1211 37.0276 52.8706 36.9157 52.5953C36.8039 52.32 36.7477 52.0253 36.7503 51.7282L36.7502 41.25L26.2721 41.2499C25.679 41.2445 25.112 41.0051 24.6945 40.5838C24.2769 40.1625 24.0427 39.5934 24.0427 39.0002C24.0427 38.4071 24.2769 37.838 24.6945 37.4166C25.112 36.9953 25.679 36.756 26.2721 36.7506L36.7502 36.7505L36.7503 26.2723C36.7557 25.6792 36.9951 25.1122 37.4164 24.6947C37.8377 24.2772 38.4069 24.0429 39 24.0429C39.5931 24.0429 40.1623 24.2772 40.5836 24.6947C41.0049 25.1122 41.2443 25.6792 41.2497 26.2723L41.2498 36.7505L51.728 36.7505C52.3222 36.7542 52.8908 36.9929 53.3097 37.4144C53.7285 37.8359 53.9636 38.406 53.9636 39.0002C53.9636 39.5945 53.7285 40.1645 53.3096 40.586C52.8907 41.0075 52.3221 41.2462 51.7279 41.2499L41.2498 41.25L41.2497 51.7282Z" fill="#CCCCCC"/>
</g>
<defs>
<clipPath id="clip0">
<rect width="54" height="54" fill="white" transform="translate(39 0.816162) rotate(45)"/>
</clipPath>
</defs>
</svg>
