<svg width="269" height="32" viewBox="0 0 269 32" fill="none" xmlns="http://www.w3.org/2000/svg">
<g clip-path="url(#clip0)">
<path d="M0 0.323181H6.12096V31.3535H0V0.323181Z" fill="#D3313A"/>
<path d="M29.9604 3.23232L26.0945 7.75758C23.8395 6.46465 22.5508 5.81818 21.5844 5.81818C20.94 5.81818 20.2957 6.14141 19.6514 6.78788C19.3293 7.11111 19.0071 8.08081 19.0071 8.72727C19.0071 10.3434 20.2957 11.6364 22.873 12.6061C24.8059 13.5758 26.0945 14.2222 27.061 14.8687C28.0275 15.5152 28.9939 16.8081 29.6383 18.101C30.2826 19.3939 30.6047 20.6869 30.6047 22.303C30.6047 24.8889 29.6383 27.1515 27.7053 29.4141C25.7724 31.6768 23.1951 32 20.6179 32C17.7185 32 14.4969 30.3838 11.5975 27.4747L15.7856 22.303C17.7185 24.2424 19.3293 25.2121 20.9401 25.2121C21.5844 25.2121 22.5508 24.8889 23.1951 24.2424C23.8395 23.596 24.1616 22.6263 24.1616 21.9798C24.1616 20.3636 22.5508 19.0707 19.3293 17.7778C17.3963 17.1313 16.1077 16.1616 15.4634 15.8384C14.4969 15.1919 13.8526 14.2222 13.5305 12.9293C12.8862 11.6364 12.564 10.6667 12.564 9.37374C12.564 6.46465 13.5305 4.52525 15.1412 2.58586C16.752 0.646465 19.0071 0 21.9065 0C25.1281 0 27.7053 0.969697 29.9604 3.23232Z" fill="#D3313A"/>
<path d="M46.7127 0.323181H51.545L63.4648 31.3535H57.0216L54.7666 25.5353H43.4911L41.236 31.6767H35.1151L46.7127 0.323181ZM49.2899 10.6666L45.7462 19.7171H52.5115L49.2899 10.6666Z" fill="#D3313A"/>
<path d="M79.2503 0.323181H84.0826L96.0024 31.3535H89.5593L87.3042 25.2121H76.0288L74.0958 31.3535H67.6527L79.2503 0.323181ZM81.8276 10.6666L78.2838 19.7171H85.0491L81.8276 10.6666Z" fill="#D3313A"/>
<path d="M121.453 1.93939V9.69697C118.231 7.75758 115.654 6.78788 113.077 6.78788C110.499 6.78788 108.889 7.75758 107.278 9.37374C105.667 10.9899 105.345 13.2525 105.345 16.1616C105.345 19.0707 105.989 21.0101 107.6 22.9495C109.211 24.5657 111.144 25.5354 113.721 25.5354C115.976 25.5354 118.553 24.5657 121.453 22.6263V30.0606C117.909 31.3535 115.332 32 113.077 32C109.211 32 105.989 30.3838 103.09 27.4747C100.513 24.5657 98.9018 20.6869 98.9018 16.1616C98.9018 11.6364 100.19 7.75758 103.09 4.84848C105.989 1.93939 109.211 0 113.077 0C115.654 0 118.553 0.646465 121.453 1.93939Z" fill="#D3313A"/>
<path d="M139.171 0.323181H158.823V6.78783H152.057V31.3535H145.937V7.11106H139.171V0.323181Z" fill="#D3313A"/>
<path d="M163.011 15.8384C163.011 11.3131 164.299 7.43434 167.199 4.52525C170.098 1.61616 173.642 0 177.508 0C181.696 0 185.239 1.61616 188.139 4.52525C191.038 7.43434 192.327 11.3131 192.327 15.8384C192.327 20.3636 191.038 24.2424 188.139 27.1515C185.239 30.0606 181.696 31.6768 177.508 31.6768C173.32 31.6768 169.776 30.0606 167.199 27.1515C164.299 24.2424 163.011 20.6869 163.011 15.8384ZM177.83 6.14141C175.253 6.14141 173.32 7.11111 172.031 8.72727C170.42 10.6667 169.776 12.9293 169.776 15.8384C169.776 18.7475 170.42 21.0101 172.031 22.6263C173.642 24.2424 175.253 25.8586 177.508 25.8586C180.085 25.8586 182.018 24.8889 183.307 23.2727C184.917 21.3333 185.562 19.0707 185.562 16.1616C185.562 13.2525 184.917 10.9899 183.307 9.0505C182.018 7.11111 180.085 6.46465 177.83 6.14141Z" fill="#D3313A"/>
<path d="M205.857 0.323181H210.69L222.61 31.3535H216.166L213.911 25.2121H202.958L200.703 31.3535H194.582L205.857 0.323181ZM208.435 10.6666L204.891 19.7171H211.656L208.435 10.6666Z" fill="#D3313A"/>
<path d="M244.838 3.23232L240.972 7.75758C239.04 6.46465 237.429 5.81818 236.462 5.81818C235.818 5.81818 235.174 6.14141 234.529 6.78788C233.885 7.43434 233.885 8.08081 233.885 8.72727C233.885 10.3434 235.174 11.6364 237.751 12.6061C239.684 13.5758 240.972 14.2222 241.939 14.8687C242.905 15.5152 243.872 16.4848 244.516 17.7778C245.16 19.0707 245.483 20.3636 245.483 21.9798C245.483 24.5657 244.516 26.8283 242.583 29.0909C240.65 31.3535 238.073 32 235.496 32C232.596 32 229.375 30.3838 226.475 27.4747L230.663 22.303C232.596 24.2424 234.207 25.2121 235.818 25.2121C236.462 25.2121 237.429 24.8889 238.073 24.2424C238.717 23.596 239.039 22.6263 239.039 21.9798C239.039 20.3636 237.429 19.0707 234.207 17.7778C232.274 17.1313 230.986 16.4848 230.341 15.8384C229.697 15.1919 229.053 14.2222 228.408 13.2525C227.764 11.9596 227.764 10.9899 227.764 9.69697C227.764 6.78788 228.731 4.84848 230.341 2.90909C231.952 0.969697 233.885 0 236.784 0C240.006 0 242.583 0.969697 244.838 3.23232Z" fill="#D3313A"/>
<path d="M249.671 0.323181H269.322V6.78783H262.557V31.3535H256.436V7.11106H249.993V0.323181H249.671Z" fill="#D3313A"/>
</g>
<defs>
<clipPath id="clip0">
<rect width="269" height="32" fill="white"/>
</clipPath>
</defs>
</svg>
